Trappola Criminale (2000)
Reindeer Games
[DVD5 Ita Eng MultiSUB] Action - Drama [TNT Village]

.:  Film Data :.

Original Title: Reindeer Games
Country:  USA
Year: 2000                                 
Genre: Action - Drama
Running Time: 104'
Director: John Frankenheimer
Cast: Ben Affleck, Gary Sinise, Charlize Theron
Production: Dimension Films
Distribution: Eagle Pictures
DVD Release date: 26/08/2003

.: Synopsis :.

Rudy è un galeotto carico di speranze: sta per lasciare il carcere dove da tempo è rinchiuso e ha voglia di lasciarsi alle spalle una vita da fuorilegge.
Fuori lo aspettano una vita nuova ed il matrimonio con l'incantevole Ashley, una giovane conosciuta tramite una fitta corrispondenza dalla cella.
Per sua sfortuna, il futuro cognato intende coinvolgerlo in un colpo sensazionale ad un casinò dove Rudy aveva, in precedenza, lavorato.
______________________________________________________________________________________________________
Rudy, a convict plenty of hopes, is just leaving jail wishing to forgive his outlaw past.
Outside prison there is a new life and the marriage with Ashley, a pretty girl experienced just by writing each other.
Unfortunately, her brother want to join him in a sensational robbery at the Casinò where Rudy worked time ago.

.: DVD Data :.

Format: PAL 2.35:1
Languages: Italian AC 5.1 - English AC3 5.1
Subtitles: English - Italian Hearing-Impaired Person

Analysis of one of the VOBs
General
Complete name                    : C:\TR4PP014 CRlMlN41E\VIDEO_TS\VTS_03_1.VOB
Format                           : MPEG-PS
File size                        : 1 024 MiB
Duration                         : 31mn 40s
Overall bit rate                 : 4 521 Kbps

Video
ID                               : 224 (0xE0)
Format                           : MPEG Video
Format version                   : Version 2
Format profile                   : Main@Main
Format settings, BVOP            : Yes
Format settings, Matrix          : Default
Format_Settings_GOP              : M=3, N=13
Duration                         : 31mn 40s
Bit rate mode                    : Variable
Bit rate                         : 3 221 Kbps
Nominal bit rate                 : 8 000 Kbps
Width                            : 720 pixels
Height                           : 576 pixels
Display aspect ratio             : 2.35:1
Frame rate                       : 25.000 fps
Standard                         : PAL
Resolution                       : 8 bits
Colorimetry                      : 4:2:0
Scan type                        : Interlaced
Scan order                       : Top Field First
Bits/(Pixel*Frame)               : 0.311
Stream size                      : 730 MiB (71%)

Audio #1
ID                               : 129 (0x81)
Format                           : AC-3
Format/Info                      : Audio Coding 3
Duration                         : 31mn 40s
Bit rate mode                    : Constant
Bit rate                         : 448 Kbps
Channel(s)                       : 6 channels
Channel positions                : Front: L C R, Side: L R, LFE
Sampling rate                    : 48.0 KHz
Stream size                      : 101 MiB (10%)

Audio #2
ID                               : 130 (0x82)
Format                           : AC-3
Format/Info                      : Audio Coding 3
Duration                         : 31mn 40s
Bit rate mode                    : Constant
Bit rate                         : 448 Kbps
Channel(s)                       : 6 channels
Channel positions                : Front: L C R, Side: L R, LFE
Sampling rate                    : 48.0 KHz
Stream size                      : 101 MiB (10%)

Audio #3
ID                               : 131 (0x83)
Format                           : AC-3
Format/Info                      : Audio Coding 3
Duration                         : 31mn 40s
Bit rate mode                    : Constant
Bit rate                         : 224 Kbps
Channel(s)                       : 3 channels
Channel positions                : Front: L C R
Sampling rate                    : 48.0 KHz
Stream size                      : 50.7 MiB (5%)

Text #1
ID                               : 37 (0x25)
Format                           : RLE
Format/Info                      : Run-length encoding
Duration                         : 31mn 29s
Video delay                      : 9s 0ms

Text #2
ID                               : 38 (0x26)
Format                           : RLE
Format/Info                      : Run-length encoding
Duration                         : 31mn 29s
Video delay                      : 9s 0ms

Text #3
ID                               : 33 (0x21)
Format                           : RLE
Format/Info                      : Run-length encoding

Text #4
ID                               : 34 (0x22)
Format                           : RLE
Format/Info                      : Run-length encoding

Text #5
ID                               : 35 (0x23)
Format                           : RLE
Format/Info                      : Run-length encoding

Text #6
ID                               : 36 (0x24)
Format                           : RLE
Format/Info                      : Run-length encoding

Report generated with MediaInfo 0.7.36